<svg width="24" height="25" viewBox="0 0 24 25" fill="none" xmlns="http://www.w3.org/2000/svg">
<path d="M11.751 2.56055C14.3989 2.56055 14.7319 2.5719 15.7715 2.61914C16.8085 2.66563 17.5172 2.83142 18.1377 3.07227C18.778 3.32102 19.3224 3.65395 19.8643 4.19629C20.4059 4.73852 20.7397 5.28131 20.9893 5.92188C21.2303 6.54093 21.3941 7.25064 21.4414 8.28809C21.4887 9.32667 21.5 9.65914 21.5 12.3047C21.5 14.9507 21.4887 15.2827 21.4414 16.3223C21.3949 17.3594 21.2302 18.0682 20.9893 18.6875C20.7397 19.3282 20.4069 19.8726 19.8643 20.4141C19.3216 20.9555 18.7778 21.2886 18.1367 21.5381C17.517 21.7789 16.8083 21.943 15.7705 21.9902C14.7309 22.0383 14.3979 22.0498 11.75 22.0498C9.10246 22.0498 8.77059 22.0375 7.73047 21.9902C6.69274 21.943 5.98474 21.7789 5.36426 21.5381C4.72279 21.2886 4.17928 20.9553 3.63672 20.4141C3.09413 19.8728 2.76063 19.3282 2.51172 18.6875C2.27077 18.0681 2.10585 17.3595 2.05859 16.3223C2.01056 15.2835 2 14.9507 2 12.3047C2 9.65917 2.01057 9.32665 2.05859 8.28809C2.10586 7.25072 2.27069 6.54132 2.51172 5.92188C2.76061 5.28091 3.09414 4.73768 3.63672 4.19629C4.17939 3.6548 4.72276 3.32102 5.36426 3.07227C5.98359 2.83146 6.69269 2.66637 7.73047 2.61914C8.77062 2.57112 9.10326 2.56055 11.751 2.56055ZM11.75 4.31641C9.14794 4.31641 8.83902 4.32582 7.81152 4.37305C6.8612 4.41622 6.34419 4.57426 6.00098 4.70801C5.545 4.88434 5.21992 5.09526 4.87891 5.43652C4.53788 5.77782 4.32664 6.10266 4.14941 6.55762C4.01682 6.90164 3.85774 7.41724 3.81445 8.36719C3.76797 9.39513 3.75781 9.70287 3.75781 12.3047C3.75781 14.9069 3.76718 15.216 3.81445 16.2432C3.85767 17.1931 4.01557 17.7097 4.14941 18.0527C4.32585 18.5077 4.53743 18.832 4.87891 19.1729C5.2204 19.5137 5.54575 19.7243 6.00098 19.9014C6.34435 20.035 6.86114 20.194 7.81152 20.2373C8.83868 20.2845 9.1468 20.2939 11.75 20.2939C14.3536 20.2939 14.6629 20.2845 15.6904 20.2373C16.6408 20.1941 17.1578 20.0351 17.501 19.9014C17.9562 19.7243 18.282 19.5134 18.623 19.1729C18.9641 18.8324 19.1753 18.5077 19.3525 18.0527C19.4855 17.7096 19.6442 17.1931 19.6875 16.2432C19.7348 15.2152 19.7441 14.9069 19.7441 12.3047C19.7441 9.70287 19.7348 9.39513 19.6875 8.36719C19.6443 7.41725 19.4864 6.90062 19.3525 6.55762C19.1753 6.10266 18.9645 5.77735 18.623 5.43652C18.2816 5.09573 17.9562 4.88434 17.501 4.70801C17.1567 4.57551 16.6408 4.4163 15.6904 4.37305C14.662 4.3266 14.3524 4.31641 11.75 4.31641ZM11.75 7.30176C14.5151 7.30176 16.7566 9.54132 16.7568 12.3047C16.7568 15.0682 14.5152 17.3086 11.75 17.3086C8.98497 17.3084 6.74414 15.0681 6.74414 12.3047C6.74436 9.54145 8.9851 7.30197 11.75 7.30176ZM11.75 9.05664C9.95538 9.05685 8.50119 10.5111 8.50098 12.3047C8.50098 14.0984 9.95525 15.5535 11.75 15.5537C13.5449 15.5537 15.001 14.0985 15.001 12.3047C15.0008 10.511 13.5448 9.05664 11.75 9.05664ZM16.9561 5.93457C17.1874 5.93472 17.4132 6.00332 17.6055 6.13184C17.7978 6.26035 17.9476 6.44265 18.0361 6.65625C18.1246 6.86996 18.1478 7.10522 18.1025 7.33203C18.0573 7.55883 17.9459 7.7672 17.7822 7.93066C17.6187 8.09397 17.4103 8.20491 17.1836 8.25C16.9566 8.29503 16.7206 8.27218 16.5068 8.18359C16.2933 8.09503 16.1109 7.94508 15.9824 7.75293C15.8539 7.56058 15.7851 7.33381 15.7852 7.10254C15.7855 6.79273 15.9087 6.49542 16.1279 6.27637C16.3473 6.05726 16.645 5.93477 16.9551 5.93457H16.9561Z" fill="#5C5F66"/>
</svg>
