<svg width="262" height="202" viewBox="0 0 262 202" fill="none" xmlns="http://www.w3.org/2000/svg">
<path d="M131 170.739C128.239 170.739 126 168.501 126 165.739V19.438C126 16.677 128.239 14.438 131 14.438C133.762 14.438 136 16.677 136 19.438V165.74C136 168.501 133.762 170.739 131 170.739Z" stroke="#414141" stroke-width="27"/>
<path d="M243.22 187.563C240.458 187.563 238.22 185.324 238.22 182.562C238.22 182.562 238.222 164.352 238.221 163.842C238.221 163.834 238.221 163.827 238.221 163.82C238.221 104.699 190.122 56.6001 131.001 56.6001C71.879 56.6001 23.781 104.699 23.781 163.82L23.78 182.563C23.78 185.325 21.541 187.563 18.78 187.563C16.019 187.563 13.78 185.324 13.78 182.563L13.781 163.82C13.781 99.1851 66.366 46.6001 131.001 46.6001C195.636 46.6001 248.221 99.1841 248.221 163.82H248.189C248.21 164.075 248.221 164.343 248.221 164.625L248.22 182.564C248.22 185.324 245.98 187.563 243.22 187.563Z" stroke="#414141" stroke-width="27"/>
</svg>
