<svg width="29" height="29" viewBox="0 0 29 29" fill="none" xmlns="http://www.w3.org/2000/svg">
<path d="M14.31 25.9177C12.665 25.9177 11.0084 25.2877 9.76004 24.0394L4.47504 18.7544C3.19171 17.471 2.51504 15.6977 2.59671 13.8894L2.87671 8.05604C3.00504 5.26771 5.21004 3.06271 8.01004 2.92271L13.8434 2.64271C15.6517 2.57271 17.425 3.23771 18.7084 4.52104L23.9934 9.80604C26.5017 12.3144 26.5017 16.4094 23.9934 18.9177L18.8717 24.0394C17.6117 25.2877 15.9667 25.9177 14.31 25.9177ZM5.71171 17.506L10.9967 22.791C11.8834 23.6777 13.0617 24.1677 14.31 24.1677C15.5584 24.1677 16.7367 23.6777 17.6234 22.791L22.745 17.6694C23.6317 16.7827 24.1217 15.6044 24.1217 14.356C24.1217 13.1077 23.6317 11.9294 22.745 11.0427L17.46 5.75771C16.5267 4.82437 15.2317 4.32271 13.925 4.39271L8.09171 4.67271C6.19004 4.75437 4.70837 6.23604 4.61504 8.12604L4.33504 13.9594C4.27671 15.2777 4.77837 16.5727 5.71171 17.506Z" fill="#CB201C" fill-opacity="0.85"/>
<path d="M11.3117 15.1478C9.22335 15.1478 7.52002 13.4445 7.52002 11.3561C7.52002 9.26779 9.22335 7.56445 11.3117 7.56445C13.4 7.56445 15.1034 9.26779 15.1034 11.3561C15.1034 13.4445 13.4 15.1478 11.3117 15.1478ZM11.3117 9.31445C10.1917 9.31445 9.27002 10.2361 9.27002 11.3561C9.27002 12.4761 10.1917 13.3978 11.3117 13.3978C12.4317 13.3978 13.3534 12.4761 13.3534 11.3561C13.3534 10.2361 12.4317 9.31445 11.3117 9.31445Z" fill="#CB201C" fill-opacity="0.85"/>
</svg>
